<svg width="100" height="75" viewBox="0 0 100 75" fill="none" xmlns="http://www.w3.org/2000/svg">
<path d="M59.9836 63.7931C55.9007 64.2241 56.2959 60.9251 58.7214 56.1339C64.253 44.9934 74.4931 29.8574 74.9541 18.7997C75.5907 4.44297 66.0311 0 56.1861 0C49.3374 0.265252 42.2473 3.13329 37.4181 5.73607C20.7794 14.6054 10.3527 28.5312 3.73453 44.1976C-3.11413 59.6817 -0.984902 74.569 13.81 75C24.983 74.3037 32.5231 69.6121 40.1181 63.6936C40.173 63.6936 18.9904 72.8282 11.1539 66.1306C10.2869 65.4343 9.43078 64.4728 9.20029 61.7871C9.20029 56.2997 15.1929 50.5637 18.705 48.74V39.3402C25.7842 43.0869 34.1365 42.0424 41.2815 34.0351C41.512 34.9967 41.7424 36.2069 41.6876 37.5166H42.8949C43.1802 33.7699 41.512 30.1227 38.7461 29.8574C39.5474 30.819 40.1291 31.5981 40.4144 32.2944L40.3047 32.4602L40.2498 32.5431C31.0414 42.2911 22.1074 37.7653 21.2513 37.5L26.3768 29.9237L24.9391 24.4363C35.1352 19.0484 43.5424 15.1194 57.5251 11.3893L54.3971 7.57626L56.0105 6.10079C64.2969 9.58223 69.8834 12.185 69.5981 18.7997C69.4883 19.9271 69.192 21.2367 68.731 22.6293C66.2615 30.0232 59.0068 41.943 56.0654 47.0822C54.1666 50.4808 52.2679 53.6141 50.9398 56.7473C49.4472 59.9635 48.6899 62.931 48.635 65.6167C48.9204 87.4668 91.5928 55.3548 100 46.8999C87.7404 54.8243 74.4382 62.4005 59.9836 63.7931ZM69.3127 13.5776C69.62 14.4397 69.7627 15.5007 69.7627 16.744C69.7517 15.6167 69.609 14.5391 69.3127 13.5776Z" fill="#FFFEFE"/>
</svg>
