<svg width="100" height="110" viewBox="0 0 100 110" fill="none" xmlns="http://www.w3.org/2000/svg">
<path d="M83.6052 58.1312C83.5479 49.1147 87.9685 42.3193 96.8956 37.3086C91.9027 30.6983 84.3491 27.0626 74.392 26.362C64.9642 25.6745 54.6495 31.4387 50.8727 31.4387C46.8813 31.4387 37.7539 26.5999 30.5722 26.5999C15.7511 26.8115 0 37.5202 0 59.3078C0 65.7462 1.27325 72.3962 3.81974 79.2445C7.22461 88.261 19.4993 110.353 32.3033 109.996C38.9986 109.85 43.7339 105.606 52.4463 105.606C60.9013 105.606 65.279 109.996 72.7468 109.996C85.6652 109.824 96.7668 89.7417 100 80.6988C82.6753 73.1498 83.6052 58.5939 83.6052 58.1312V58.1312ZM68.5694 17.8082C75.8226 9.84938 75.1645 2.60447 74.9499 0C68.5408 0.343737 61.1302 4.0323 56.9099 8.56697C52.2604 13.4322 49.5279 19.4476 50.1144 26.2297C57.0386 26.7189 63.3619 23.427 68.5694 17.8082V17.8082Z" fill="#FFFEFE"/>
</svg>
