<svg width="100" height="100" viewBox="0 0 100 100" fill="none" xmlns="http://www.w3.org/2000/svg">
<path d="M39.7656 45.346C40.7366 44.6429 41.2054 43.4821 41.2054 41.8862C41.2388 41.1272 41.0826 40.3795 40.7478 39.6987C40.4464 39.1518 40 38.6942 39.4531 38.3705C38.8861 38.0267 38.2563 37.799 37.6004 37.7009C36.8862 37.567 36.1607 37.5 35.4464 37.5112H27.6004V46.4062H36.0937C37.5558 46.4174 38.7946 46.0603 39.7656 45.346V45.346ZM41.0826 53.3817C39.9888 52.5446 38.5268 52.1317 36.7076 52.1317H27.5781V62.6228H36.529C37.3661 62.6228 38.1362 62.5446 38.8839 62.3884C39.5914 62.25 40.2658 61.9773 40.8705 61.5848C41.4397 61.2165 41.8973 60.7143 42.2433 60.067C42.5781 59.4196 42.7455 58.5937 42.7455 57.6004C42.7455 55.625 42.1875 54.2299 41.0826 53.3817V53.3817ZM50 0C22.3884 0 0 22.3884 0 50C0 77.6116 22.3884 100 50 100C77.6116 100 100 77.6116 100 50C100 22.3884 77.6116 0 50 0ZM59.654 32.0201H75.1004V35.7813H59.654V32.0201ZM50 63.0357C49.2775 64.4071 48.2459 65.5916 46.9866 66.4955C45.6696 67.4107 44.2076 68.0804 42.6563 68.471C41.0332 68.9059 39.3589 69.1199 37.6786 69.1071H19.1964V31.0379H37.1652C38.9844 31.0379 40.6362 31.2054 42.1429 31.5179C43.6384 31.8304 44.9107 32.3661 45.9821 33.0915C47.0424 33.817 47.8795 34.7879 48.471 35.9933C49.0513 37.1875 49.3527 38.683 49.3527 40.4576C49.3527 42.3772 48.9174 43.9621 48.0469 45.2455C47.1652 46.529 45.8929 47.567 44.1629 48.3817C46.5179 49.0513 48.2478 50.2455 49.3862 51.9196C50.5469 53.6161 51.1161 55.6473 51.1161 58.0357C51.1161 59.9777 50.7478 61.6406 50 63.0357ZM81.1161 57.1429H61.2054C61.2054 59.308 61.9531 61.3839 63.0804 62.5C64.2188 63.6049 65.8482 64.1629 67.9799 64.1629C69.5201 64.1629 70.8259 63.7723 71.942 63.0022C73.0469 62.2321 73.7165 61.4174 73.9621 60.5692H80.6362C79.5647 63.8839 77.9353 66.25 75.7254 67.6786C73.5379 69.1071 70.8594 69.8214 67.7455 69.8214C65.5692 69.8214 63.6161 69.4643 61.8638 68.7835C60.1786 68.125 58.6607 67.1205 57.4107 65.8259C56.1782 64.4964 55.2256 62.9327 54.6094 61.2277C53.9286 59.3415 53.5938 57.3549 53.6161 55.3571C53.6161 53.2924 53.9621 51.3728 54.6317 49.5871C55.9152 46.1161 58.5826 43.3371 61.9866 41.8973C63.8058 41.1384 65.7589 40.7589 67.7344 40.7812C70.0781 40.7812 72.1094 41.2277 73.8728 42.1429C75.5704 43.0168 77.0444 44.2693 78.1808 45.8036C79.308 47.3326 80.1004 49.0737 80.6027 51.0379C81.0826 52.9687 81.25 55 81.1161 57.1429V57.1429ZM67.5 46.4732C66.2946 46.4732 65.279 46.6853 64.4978 47.0982C63.7165 47.5112 63.0692 48.0246 62.5781 48.6161C62.1105 49.1872 61.7648 49.8481 61.5625 50.558C61.3839 51.1496 61.2612 51.7522 61.2165 52.3661H73.5491C73.3705 50.4353 72.7009 49.0067 71.808 48.0022C70.8705 47.0089 69.3638 46.4732 67.5 46.4732V46.4732Z" fill="#FFFEFE"/>
</svg>
