<svg width="100" height="100" viewBox="0 0 100 100" fill="none" xmlns="http://www.w3.org/2000/svg">
<path d="M50 0C22.385 0 0 22.385 0 50C0 77.615 22.385 100 50 100C77.615 100 100 77.615 100 50C100 22.385 77.615 0 50 0ZM50 7.245C60.8925 7.245 70.835 11.32 78.385 18.025C72.8375 25.3425 64.41 30.215 55.965 33.5125C51.1844 24.8059 45.8266 16.4288 39.9275 8.4375C43.2267 7.64225 46.6088 7.24194 50.0025 7.245H50ZM31.81 11.295C37.385 19.635 42.785 27.3675 47.7175 36.12C35.2425 39.3525 21.145 41.2925 8.1225 41.325C10.8675 28.005 19.815 16.945 31.81 11.2975V11.295ZM83.1275 22.97C89.3056 30.5199 92.7043 39.9621 92.755 49.7175C82.865 47.7675 73.03 47.2575 63.015 48.2675C61.89 45.46 60.525 42.7925 59.2175 39.9175C67.85 36.435 77.08 30.475 83.1275 22.9675V22.97ZM51.19 42.735C52.26 45.01 53.5 47.425 54.665 49.8925C40.74 56.0325 25.9275 64.2375 18.24 78.6225C10.86 70.4557 6.927 59.7496 7.265 48.7475C22.1775 48.6775 36.815 46.8125 51.19 42.735V42.735ZM73.785 54.3925C80.007 54.3938 86.2033 55.192 92.2225 56.7675C91.2944 62.5581 89.1848 68.0958 86.025 73.0362C82.8651 77.9766 78.7226 82.2141 73.855 85.485C71.56 75.0475 69.3725 65.06 65.505 54.99C68.2461 54.5906 71.0125 54.3901 73.7825 54.39L73.785 54.3925ZM92.445 55.1675C92.415 55.4125 92.3875 55.6525 92.3525 55.8925C92.3875 55.65 92.4175 55.41 92.445 55.1675ZM57.595 56.9425C61.535 67.125 64.6275 78.4 66.7025 89.3725C61.4205 91.6137 55.7403 92.765 50.0025 92.7575C40.4971 92.7711 31.2607 89.6028 23.765 83.7575C31.5075 71.1975 43.5 61.6925 57.5925 56.945L57.595 56.9425Z" fill="#FFFEFE"/>
</svg>
