<svg width="100" height="100" viewBox="0 0 100 100" fill="none" xmlns="http://www.w3.org/2000/svg">
<path d="M99.0821 40.899H51.0177V60.2476H78.4754C77.2915 66.5016 73.6996 71.7915 68.2852 75.3355C63.7089 78.3322 57.8688 80.1042 51.0044 80.1042C37.7145 80.1042 26.4733 71.3094 22.4558 59.4919C21.4447 56.4951 20.8594 53.2899 20.8594 49.9935C20.8594 46.6971 21.4447 43.4919 22.4558 40.4951C26.4866 28.6906 37.7278 19.8958 51.0177 19.8958C58.5074 19.8958 65.2255 22.4235 70.5201 27.3746L85.1536 13.0293C76.307 4.95114 64.7732 0 51.0177 0C31.0762 0 13.822 11.2052 5.4277 27.544C1.96887 34.2932 0 41.9283 0 50.0065C0 58.0847 1.96887 65.7068 5.4277 72.456C13.822 88.7948 31.0762 100 51.0177 100C64.7998 100 76.3469 95.5179 84.7812 87.8827C94.426 79.1792 100 66.3583 100 51.127C100 47.5831 99.6807 44.1824 99.0821 40.899Z" fill="#FFFEFE"/>
</svg>
