<svg width="100" height="75" viewBox="0 0 100 75" fill="none" xmlns="http://www.w3.org/2000/svg">
<path d="M0 69.7803H19.4458V74.9844H0V69.7803ZM0 59.7928H19.4458V65.0125H0V59.7928ZM5.54167 49.8286H13.8875V55.0561H5.54167V49.8286ZM5.54167 39.8722H13.8875V45.0919H5.54167V39.8722ZM5.54167 29.9003H13.8875V35.1278H5.54167V29.9003ZM5.54167 19.9205H13.8875V25.148H5.54167V19.9205ZM0 9.96417H19.4458V15.1839H0V9.96417ZM0 6.85427e-06H19.4458V5.2197H0V6.85427e-06ZM22.2167 65.0125H52.1208C52.6208 63.4076 53.0042 61.6392 53.2333 59.7928H22.2208V65.0125H22.2167ZM49.7917 39.8722H27.7792V45.0919H52.125C51.5082 43.1256 50.7227 41.3622 49.8 39.8722H49.7917ZM27.775 29.9003V35.1278H49.7958C50.725 33.6631 51.5042 31.9025 52.125 29.9003H27.775V29.9003ZM52.1208 9.96417H22.2167V15.1839H53.2292C52.9776 13.3643 52.6053 11.6108 52.1208 9.96417V9.96417ZM42.9292 6.85427e-06H22.2167V5.2197H50.0708C48.1269 1.85999 45.5764 -0.00412506 42.9292 6.85427e-06V6.85427e-06ZM27.775 19.9205H36.1083V25.148H27.775V19.9205ZM44.4458 25.148H53.1625C53.4083 23.4808 53.5375 21.7202 53.5375 19.9205H44.4458V25.148ZM27.775 49.8286H36.1042V55.0561H27.7708L27.775 49.8286ZM44.4458 49.8286V55.0561H53.5375C53.5375 53.2643 53.4083 51.4958 53.1625 49.8286H44.4458ZM22.2167 74.9455L42.925 75C45.7042 75 48.2083 72.9978 50.0792 69.7803H22.2167V74.9455V74.9455ZM55.5583 69.7803H69.4417V74.9844H55.5583V69.7803ZM55.5583 59.7928H69.4417V65.0125H55.5583V59.7928ZM61.1042 49.8286H69.4375V55.0561H61.1042V49.8286ZM61.1042 39.8722H69.4375V45.0919H61.1042V39.8722ZM73.3083 9.96417H55.5583V15.1839H74.2667L73.3083 9.96417ZM71.4667 6.85427e-06H55.5583V5.21191H72.425L71.4667 6.85427e-06ZM86.1042 69.7803H100V74.9844H86.1042V69.7803ZM86.1042 59.7928H100V65.0125H86.1042V59.7928ZM86.1042 49.8286H94.4375V55.0561H86.1042V49.8286ZM86.1042 39.8722H94.4375V45.0919H86.1042V39.8722ZM86.1042 35.1278H94.4375V29.9003H78.5583L77.775 34.1228L76.9917 29.9003H61.1042V35.1278H69.4375V30.3288L70.325 35.1278H85.2208L86.1042 30.3288V35.1278ZM94.4417 19.9205H80.4L79.4417 25.148H94.4417V19.9205ZM84.0958 6.85427e-06L83.1333 5.21191H100V6.85427e-06H84.0958ZM77.775 74.9455L78.7333 69.7803H76.8125L77.775 74.9455ZM75.9333 65.0125H79.6167L80.6083 59.7928H74.9542L75.9333 65.0125ZM74.0625 55.0561H81.4875L82.4667 49.8286H73.0792L74.0625 55.0561ZM72.1958 45.0919H83.3583L84.3125 39.8722H71.2375L72.1958 45.0919ZM61.1042 25.148H76.1125L75.15 19.9205H61.1042V25.148ZM81.2917 15.1839H100V9.96417H82.2417L81.2917 15.1839Z" fill="#FFFEFE"/>
</svg>
